<?xml version="1.0" encoding="UTF-8"?>
<svg width="31px" height="31px" viewBox="0 0 31 31" version="1.1" xmlns="http://www.w3.org/2000/svg" xmlns:xlink="http://www.w3.org/1999/xlink">
    <!-- Generator: sketchtool 52 (66869) - http://www.bohemiancoding.com/sketch -->
    <title>441B4415-D61C-4D77-B417-44B20979DDE2</title>
    <desc>Created with sketchtool.</desc>
    <g id="Specs" stroke="none" stroke-width="1" fill="none" fill-rule="evenodd">
        <g id="Form-Specs" transform="translate(-975.000000, -860.000000)" fill="#FFFFFF" fill-rule="nonzero">
            <g id="Group" transform="translate(871.000000, 844.000000)">
                <path d="M119.516531,16 C112.560148,16 106.424617,20.6537205 104.569938,27.3475604 C104.355339,28.0635174 104.213201,28.7794744 104.142139,29.4954314 L104.071069,30.0323991 L104.071069,30.1037156 C104.034839,30.569374 104,31.0699712 104,31.499259 C104,32.1788454 104.03623,32.823493 104.1073,33.4681407 C104.214599,34.3994576 104.427807,35.3293425 104.713468,36.2242888 C104.713468,36.2606451 104.713468,36.2606451 104.749698,36.2956052 C105.142681,37.5121594 105.677787,38.6937748 106.355018,39.7327716 C106.391248,39.7691279 106.391248,39.8040881 106.426087,39.8404444 L106.568225,40.0557899 C107.139576,40.9507362 107.816807,41.7380025 108.566527,42.4903301 C110.029722,43.9586147 111.740921,45.1038595 113.631844,45.8547552 C114.773119,46.3204136 115.950639,46.6420215 117.162976,46.8210108 C117.947514,46.9286835 118.697233,47 119.481771,47 C120.087939,47 120.730352,46.9636437 121.336521,46.8923272 C122.26461,46.7846545 123.191271,46.570705 124.083115,46.3189889 C130.611771,44.2787978 135,38.3009865 135,31.4628812 C135,22.9440669 128.043616,16 119.516874,16 L119.516531,16 Z M123.95712,43.5875202 C123.077257,43.9322933 122.197394,44.124151 121.280208,44.2785705 C120.66773,44.3550205 120.056782,44.3939938 119.483158,44.3939938 C116.9586,44.3939938 114.472742,43.6654898 112.369454,42.2444006 C111.298383,41.5158966 110.342343,40.6704268 109.540187,39.6346188 L109.464002,39.5581689 L109.425163,39.5191956 C108.621478,38.5208413 107.971676,37.4085911 107.513083,36.1809099 C107.513083,36.1419367 107.513083,36.1419367 107.474245,36.10446 C107.130667,35.2605252 106.900621,34.3776017 106.78559,33.418236 C106.709405,32.803628 106.63322,32.1515663 106.63322,31.4995046 L106.63322,31.4605313 C106.63322,31.0377964 106.672058,30.6165965 106.709405,30.1564079 L106.709405,30.1174347 L106.748243,29.9255615 C106.863266,29.0816267 107.015636,28.2751455 107.321867,27.4312107 C109.081593,22.1742703 113.938048,18.6441882 119.483081,18.6441882 C126.557779,18.6441882 132.29402,24.4003825 132.29402,31.4996888 C132.331366,36.8721368 128.967306,41.7065725 123.956967,43.5876968 L123.95712,43.5875202 Z M126.259943,25.9521602 C125.939435,25.9521602 125.653774,26.0947932 125.439161,26.2737824 L117.590933,34.2917848 L113.559441,30.1399502 C113.344842,29.9609609 113.060579,29.818328 112.738659,29.818328 C112.132491,29.818328 111.597384,30.3189251 111.597384,30.9999434 C111.597384,31.3215656 111.739523,31.6082205 111.917891,31.8235803 L116.80484,36.7987655 C117.019439,36.9777548 117.303702,37.1203877 117.625622,37.1203877 C117.946129,37.1203877 118.231791,36.9777548 118.446404,36.7987655 L127.044494,27.9570546 C127.222863,27.7780653 127.365002,27.4564575 127.401232,27.1334177 C127.401232,26.48877 126.866125,25.9518022 126.259957,25.9518022 L126.259943,25.9521602 Z" id="Combined-Shape"></path>
            </g>
        </g>
    </g>
</svg>