<?xml version="1.0" encoding="UTF-8"?>
<svg width="64px" height="64px" viewBox="0 0 64 64" version="1.1" xmlns="http://www.w3.org/2000/svg" xmlns:xlink="http://www.w3.org/1999/xlink">
    <!-- Generator: Sketch 51.3 (57544) - http://www.bohemiancoding.com/sketch -->
    <title>Group 3</title>
    <desc>Created with Sketch.</desc>
    <defs></defs>
    <g id="Layouts" stroke="none" stroke-width="1" fill="none" fill-rule="evenodd">
        <g id="1440-Sign-up" transform="translate(-688.000000, -480.000000)">
            <g id="right-side" transform="translate(688.000000, 0.000000)">
                <g id="Group-7">
                    <g id="Group-3" transform="translate(0.000000, 480.000000)">
                        <circle id="Oval-2" fill="#FFFFFF" cx="32" cy="32" r="32"></circle>
                        <path d="M20.5449684,43.4362036 C20.8962,43.7882243 21.3873622,44 21.8799293,44 C22.3710915,44 22.8279735,43.8239896 23.2148901,43.4362036 L31.9956786,34.6356849 L40.7764672,43.4362036 C41.1276987,43.7882243 41.6188609,44 42.111428,44 C42.6025902,44 43.0594722,43.8239896 43.4463888,43.4362036 C44.1845371,42.6963968 44.1845371,41.5000895 43.4463888,40.796048 L34.6656003,31.9955293 L43.4463888,23.1950107 C44.1845371,22.4552039 44.1845371,21.2588966 43.4463888,20.5548551 C42.7082406,19.8150483 41.5503005,19.8150483 40.8121523,20.5548551 L32.0313638,29.3553737 L23.2505753,20.5548551 C22.512427,19.8150483 21.3544869,19.8150483 20.6163387,20.5548551 C19.8781905,21.2946619 19.8781905,22.4909692 20.6163387,23.1950107 L29.3971272,31.9955293 L20.6163387,40.796048 C19.8068554,41.5358548 19.8068554,42.6963968 20.5449965,43.4362036 L20.5449684,43.4362036 Z" id="Shape" fill="#DE1C21" fill-rule="nonzero"></path>
                    </g>
                </g>
            </g>
        </g>
    </g>
</svg>