<?xml version="1.0" encoding="UTF-8"?>
<svg width="25px" height="25px" viewBox="0 0 25 25" version="1.1" xmlns="http://www.w3.org/2000/svg" xmlns:xlink="http://www.w3.org/1999/xlink">
    <!-- Generator: Sketch 51.3 (57544) - http://www.bohemiancoding.com/sketch -->
    <title>Clip 5</title>
    <desc>Created with Sketch.</desc>
    <defs></defs>
    <g id="Symbols" stroke="none" stroke-width="1" fill="none" fill-rule="evenodd">
        <g id="Social-Icons" transform="translate(-99.000000, -2.000000)" fill="#FFFFFF">
            <path d="M99.9619048,2 C99.6178571,2 99,2.61785714 99,2.96071429 L99,26.0380952 C99,26.3809524 99.6178571,27 99.9619048,27 L112.461905,27 L112.461905,17.3845238 L108.615476,17.3845238 L108.615476,13.5380952 L112.461905,13.5380952 L112.461905,10.6535714 C112.353571,7.53333333 114.32619,5.77619048 117.270238,5.84642857 C118.009524,5.80714286 118.709524,5.82261905 119.247619,5.83809524 C119.665476,5.85 119.986905,5.86190476 120.154762,5.84642857 L120.154762,9.69166667 L118.230952,9.69166667 C116.553571,9.3 116.24881,10.0440476 116.307143,11.6154762 L116.307143,13.5380952 L120.154762,13.5380952 L119.192857,17.3845238 L116.307143,17.3845238 L116.307143,27 L123.039286,27 C123.383333,27 124,26.3809524 124,26.0380952 L124,2.96071429 C124,2.61785714 123.383333,2 123.039286,2 L99.9619048,2 Z" id="Clip-5"></path>
        </g>
    </g>
</svg>