<?xml version="1.0" encoding="UTF-8"?>
<svg width="25px" height="25px" viewBox="0 0 25 25" version="1.1" xmlns="http://www.w3.org/2000/svg" xmlns:xlink="http://www.w3.org/1999/xlink">
    <!-- Generator: Sketch 51.3 (57544) - http://www.bohemiancoding.com/sketch -->
    <title>Combined Shape</title>
    <desc>Created with Sketch.</desc>
    <defs></defs>
    <g id="Symbols" stroke="none" stroke-width="1" fill="none" fill-rule="evenodd">
        <g id="Social-Icons" transform="translate(0.000000, -2.000000)" fill="#FFFFFF">
            <path d="M7.2737069,2 L17.7275461,2 C21.6857959,2 24.9323376,5.11829268 25,8.95731707 L25,20.0439024 C24.9323376,23.8817073 21.6857959,27 17.7275461,27 L7.2737069,27 C3.27285485,27 0,23.8146341 0,19.9219512 L0,9.07926829 C0,5.18536585 3.27285485,2 7.2737069,2 Z M3.43028894,23.5987805 C4.45261595,24.5853659 5.80435944,25.1304878 7.23561726,25.1304878 L17.7655855,25.1304878 C19.1968433,25.1304878 20.5485868,24.5853659 21.5709138,23.5987805 C22.5932409,22.6109756 23.1561518,21.304878 23.1561518,19.9219512 L23.1561518,9.07926829 C23.1561518,7.69512195 22.5932409,6.38902439 21.5709138,5.40243902 C20.5485868,4.41463415 19.1968433,3.87195122 17.7655855,3.87195122 L7.23561726,3.87195122 C5.80435944,3.87195122 4.45261595,4.41463415 3.43028894,5.40243902 C2.40796192,6.38902439 1.845051,7.69512195 1.845051,9.07926829 L1.845051,19.9219512 C1.845051,21.304878 2.40796192,22.6109756 3.43028894,23.5987805 Z M6.01385592,14.7646341 C6.01385592,11.0609756 8.97507858,8.05731707 12.6290974,8.05731707 C16.2819135,8.05731707 19.244339,11.0609756 19.244339,14.7646341 C19.244339,18.4682927 16.2819135,21.4719512 12.6290974,21.4719512 C8.97507858,21.4719512 6.01385592,18.4682927 6.01385592,14.7646341 Z M8.26544358,14.7707317 C8.26544358,17.195122 10.2055135,19.1621951 12.5978254,19.1621951 C14.9901373,19.1621951 16.9302072,17.195122 16.9302072,14.7707317 C16.9302072,12.3439024 14.9901373,10.3780488 12.5978254,10.3780488 C10.2055135,10.3780488 8.26544358,12.3439024 8.26544358,14.7707317 Z M16.8387966,7.65081301 C16.8387966,8.66178862 17.6458561,9.4800813 18.6429534,9.4800813 C19.6388479,9.4800813 20.4471101,8.66178862 20.4471101,7.65081301 C20.4471101,6.6398374 19.6388479,5.82154472 18.6429534,5.82154472 C17.6458561,5.82154472 16.8387966,6.6398374 16.8387966,7.65081301 Z" id="Combined-Shape"></path>
        </g>
    </g>
</svg>