<?xml version="1.0" encoding="UTF-8"?>
<svg width="90px" height="74px" viewBox="0 0 90 74" version="1.1" xmlns="http://www.w3.org/2000/svg" xmlns:xlink="http://www.w3.org/1999/xlink">
    <!-- Generator: Sketch 51.3 (57544) - http://www.bohemiancoding.com/sketch -->
    <title>Logo</title>
    <desc>Created with Sketch.</desc>
    <defs></defs>
    <g id="Symbols" stroke="none" stroke-width="1" fill="none" fill-rule="evenodd" opacity="0.900000036">
        <g id="Hero-Content-1440" transform="translate(-169.000000, 0.000000)">
            <g id="logo-graphic-hr" transform="translate(169.000000, 0.000000)">
                <g id="Text" transform="translate(-0.506394, 62.410884)">
                    <polygon id="Clip-10" points="19.7907821 11.0884006 36.3948997 11.0884006 36.3948997 0.112064384 19.7907821 0.112064384"></polygon>
                    <path d="M28.0930174,9.13122637 C25.5345468,9.13122637 24.4697233,8.04349004 24.4697233,5.59974962 C24.4697233,3.15457844 25.5345468,2.06898825 28.0930174,2.06898825 C30.6507821,2.06898825 31.7159586,3.15457844 31.7159586,5.59974962 C31.7159586,8.04349004 30.6507821,9.13122637 28.0930174,9.13122637 M28.0930174,0.112064384 C21.4940762,0.112064384 19.7907821,3.03868677 19.7907821,5.59974962 C19.7907821,8.16152785 21.4940762,11.0885079 28.0930174,11.0885079 C34.6912527,11.0885079 36.3948997,8.16152785 36.3948997,5.59974962 C36.3948997,3.03868677 34.6912527,0.112064384 28.0930174,0.112064384" id="Fill-9" fill="#FFFFFF"></path>
                    <path d="M11.2662645,1.85655595 L12.6229703,2.01858968 C13.231088,2.08905468 13.2977939,2.60341339 13.2977939,2.93391926 L13.2977939,4.56105263 L7.04473504,4.56105263 L7.04473504,2.93391926 C7.04473504,2.60341339 7.1103821,2.08905468 7.71885269,2.01858968 L9.07520563,1.85655595 L9.07520563,0.46406745 L0.951558568,0.46406745 L0.951558568,1.85655595 L2.30932327,2.01858968 C2.91708798,2.08905468 2.98308798,2.60341339 2.98308798,2.93391926 L2.98308798,8.2660092 C2.98308798,8.59615738 2.91708798,9.11230455 2.30932327,9.18205416 L0.951558568,9.34194175 L0.951558568,10.7344303 L9.07520563,10.7344303 L9.07520563,9.34194175 L7.71885269,9.18205416 C7.1103821,9.11230455 7.04473504,8.59615738 7.04473504,8.2660092 L7.04473504,6.63816045 L13.2977939,6.63816045 L13.2977939,8.2660092 C13.2977939,8.59615738 13.231088,9.11230455 12.6229703,9.18205416 L11.2662645,9.34194175 L11.2662645,10.7344303 L19.3906174,10.7344303 L19.3906174,9.34194175 L18.0328527,9.18205416 C17.424735,9.11230455 17.3583821,8.59615738 17.3583821,8.2660092 L17.3583821,2.93391926 C17.3583821,2.60341339 17.424735,2.08905468 18.0328527,2.01858968 L19.3906174,1.85655595 L19.3906174,0.46406745 L11.2662645,0.46406745 L11.2662645,1.85655595 Z" id="Fill-1" fill="#FFFFFF"></path>
                    <path d="M64.7025468,8.76656106 L61.299135,8.76799182 L61.299135,2.43150741 L64.7025468,2.43150741 C66.7104292,2.43150741 67.3916056,3.39762902 67.3916056,5.59957077 C67.3916056,7.80187021 66.7104292,8.76656106 64.7025468,8.76656106 M65.4416056,0.464210526 L55.4110174,0.464210526 L55.4110174,1.85669903 L56.6088997,1.98439448 C57.0363115,2.03769034 57.3176056,2.22333163 57.3176056,2.82282064 L57.3183115,8.26615227 C57.3183115,8.59594277 57.2516056,9.11244762 56.643488,9.18183955 L55.2867821,9.34172713 L55.2867821,10.7345733 L65.4416056,10.7338579 C69.0744292,10.7338579 72.0620762,9.25087379 72.0620762,5.59957077 C72.0620762,1.94755238 69.0744292,0.464210526 65.4416056,0.464210526" id="Fill-3" fill="#FFFFFF"></path>
                    <path d="M77.7531115,5.77158406 L79.6716997,2.60888605 L81.7120527,5.77158406 L77.7531115,5.77158406 Z M89.138288,9.19754216 C88.496288,9.12063873 88.2936997,8.70071027 88.0946409,8.39166582 L83.4174645,1.14736331 C83.0818174,0.628354624 82.8375821,0.464174757 82.3392292,0.464174757 L74.6401703,0.464174757 L74.6401703,1.85666326 L76.4765233,2.06877363 C76.7274645,2.09774655 77.089935,2.45293306 76.7984056,2.93509964 L73.3441703,8.63060296 C73.2040527,8.86167092 73.0289939,9.13136944 72.6291115,9.18502299 L71.2554645,9.34204905 L71.2554645,10.7345376 L77.7467586,10.7345376 L77.7467586,9.34204905 L76.6275821,9.22687276 C76.1504056,9.17643843 75.8952292,8.83734798 76.1309939,8.44388861 L76.6508762,7.58757793 L82.8831115,7.58757793 L83.3436997,8.29652018 C83.7467586,8.92033214 83.2374645,9.17643843 82.796288,9.22401124 L81.6485233,9.34204905 L81.6485233,10.7345376 L90.4293468,10.7345376 L90.4293468,9.34204905 L89.138288,9.19754216 L89.138288,9.19754216 Z" id="Fill-5" fill="#FFFFFF"></path>
                    <path d="M48.1577586,1.85655595 L49.5144645,2.01858968 C50.122935,2.08905468 50.1885821,2.60341339 50.1885821,2.93391926 L50.1885821,8.07249872 L44.8242292,0.900807358 C44.5821115,0.571732243 44.3731703,0.46406745 43.7964645,0.46406745 L36.8283468,0.46406745 L36.8283468,1.85655595 L38.1854056,2.01858968 C38.7931703,2.08905468 38.8595233,2.60341339 38.8595233,2.93391926 L38.8595233,8.2660092 C38.8595233,8.59615738 38.7931703,9.11230455 38.1854056,9.18205416 L36.8283468,9.34194175 L36.8283468,10.7344303 L43.319288,10.7344303 L43.319288,9.34194175 L41.9618762,9.18205416 C41.3541115,9.11230455 41.2877586,8.59615738 41.2877586,8.2660092 L41.2877586,3.12814512 L46.6514056,10.2984057 C46.894935,10.6274808 47.1038762,10.7344303 47.6805821,10.7344303 L47.728935,10.7344303 L52.6178762,10.7344303 L52.6178762,2.93391926 C52.6178762,2.60341339 52.6831703,2.08905468 53.2919939,2.01858968 L54.6494056,1.85655595 L54.6494056,0.46406745 L48.1577586,0.46406745 L48.1577586,1.85655595 Z" id="Fill-7" fill="#FFFFFF"></path>
                </g>
                <g id="Wing">
                    <polygon id="Fill-12" fill="#FFFFFF" points="24.0592588 60.9595197 19.1749059 56.3753602 43.8529059 53.470557 55.7883176 60.9595197"></polygon>
                    <path d="M65.6506588,41.3256464 L13.6603059,51.1978998 L18.1797176,55.4411804 L42.1172471,52.3814972 C41.7604235,52.2019366 41.6630118,51.9497649 41.6630118,51.6868625 C41.6630118,51.3892642 41.8980706,51.0855851 42.2725412,51.03837 C42.5351294,51.0061778 55.5780706,49.0614154 56.4692471,48.9276392 C56.9234824,48.8611088 57.9618353,48.6758252 59.1480706,48.0981553 C60.2358353,47.5677006 60.9403059,46.9753654 61.4072471,46.5504292 C61.7167765,46.2657077 62.7699529,45.1854829 63.4454824,44.421814 C63.9244235,43.8781247 64.2678353,43.4814461 64.5565412,43.1402095 C64.8681882,42.7732192 65.5391294,41.954466 65.8063059,41.5849719 C65.8850118,41.4765917 65.8207765,41.3070465 65.6506588,41.3256464" id="Fill-14" fill="#FFFFFF"></path>
                    <path d="M73.7841529,29.7803679 L8.87862353,46.7112826 L12.7849765,50.3776086 L32.7572118,46.5084722 C32.4039176,46.3028002 32.2309765,46.1447011 32.2309765,45.7984568 C32.2309765,45.5577312 32.3795647,45.2136331 32.7745059,45.131722 L65.2708588,38.7512417 C65.7201529,38.6628922 66.8329765,38.3974859 67.9510941,37.6914052 C69.0035647,37.0278896 69.5626235,36.3675933 69.8975647,35.9859377 C70.3270941,35.4976903 71.0901529,34.4983035 71.6548588,33.729627 C72.0780353,33.1526725 72.4316824,32.596464 72.7143882,32.1829739 C72.9981529,31.7698416 73.7061529,30.5941134 73.9998,30.0654471 C74.0792118,29.9227287 73.9708588,29.730649 73.7841529,29.7803679" id="Fill-16" fill="#FFFFFF"></path>
                    <polygon id="Clip-19" points="87.666324 0.357690342 0 0.357690342 0 30.6586408 0 60.9595912 87.666324 60.9595912 87.666324 0.357690342"></polygon>
                    <path d="M65.1977647,10.6561676 C66.0896471,10.2805927 70.3803529,8.40128769 71.3562353,7.95095554 C72.3035294,7.51135411 75.1821176,6.2043536 76.2381176,5.72218702 C77.4081176,5.18779765 80.8249412,3.56173735 81.3384706,3.31278487 C83.7395294,2.14814512 86.7070588,0.713806847 87.3130588,0.384016352 C87.4708235,0.297455289 87.7295294,0.430873786 87.6522353,0.679468574 C87.3081176,1.80512008 86.7148235,3.54456822 85.8649412,5.54262647 C85.4428235,6.5341441 84.7969412,8.00389371 84.2385882,8.93388861 C83.5432941,10.0935207 82.8172941,10.8836587 82.2395294,11.4091058 C81.0402353,12.5000613 80.0435294,13.098835 79.0087059,13.5083904 C78.3222353,13.7805927 76.9778824,14.3178436 76.0796471,14.6680225 C75.8604706,14.7531528 72.2407059,16.1288298 71.5016471,16.3699131 L7.45658824,39.2731834 C5.95905882,39.7979152 4.20952941,40.8151865 4.20952941,42.7803373 C4.20952941,43.6337864 4.73047059,44.7340419 5.72611765,45.6801329 L21.8968235,60.9595912 L14.4021176,60.9595912 C14.2669412,60.5196321 14.0174118,59.8968932 13.752,59.4322534 C13.4883529,58.9740521 13.2942353,58.5634236 12.4923529,57.7514665 C11.8528235,57.1019009 11.2044706,56.42837 10.9778824,56.1998058 L2.44235294,47.5483495 C0.865764706,45.9498314 0,43.9084926 0,42.0291875 C0,39.4255595 1.42235294,36.9435462 5.66788235,35.1812059 L65.1977647,10.6561676 Z" id="Fill-18" fill="#FFFFFF"></path>
                    <path d="M71.7391304,19.7368421 C72.6489368,18.8373283 74.2619048,18.2707441 74.3478261,18.4210526 C75.1191589,17.9567423 76.7805974,17.3327365 76.9565217,17.1052632 C78.2683207,16.7519786 79.3972922,16.3100502 80.8695652,15.7894737 C80.739958,15.735834 80.9334859,15.8801149 80.8695652,15.7894737 C80.7144845,16.4241666 79.9707998,18.0545045 79.5652174,18.4210526 C79.2356062,19.4471604 78.7678844,20.3611818 78.2608696,21.0526316 C77.7630962,21.9613551 77.0636363,23.0828938 76.9565217,23.6842105 C75.9279426,24.491904 75.3473591,25.0752059 74.3478261,26.3157895 C73.057928,26.6757427 71.8797785,27.0006473 71.7391304,27.6315789 L23.4782609,40.7894737 C23.7334435,40.2984766 23.591924,40.6742611 23.4782609,40.7894737 C23.591924,41.1623449 23.762455,41.4218324 23.4782609,42.1052632 L7.82608696,46.0526316 L6.52173913,44.7368421 C5.44169965,44.2638391 5.2173913,43.6252962 5.2173913,43.4210526 C5.2173913,41.868122 6.18043122,41.280459 7.82608696,40.7894737 L71.7391304,19.7368421 Z" id="Fill-21" fill="#FFFFFF"></path>
                </g>
            </g>
        </g>
    </g>
</svg>