<?xml version="1.0" encoding="UTF-8"?>
<svg width="26px" height="22px" viewBox="0 0 26 22" version="1.1" xmlns="http://www.w3.org/2000/svg" xmlns:xlink="http://www.w3.org/1999/xlink">
    <!-- Generator: Sketch 51.3 (57544) - http://www.bohemiancoding.com/sketch -->
    <title>Clip 2</title>
    <desc>Created with Sketch.</desc>
    <defs></defs>
    <g id="Symbols" stroke="none" stroke-width="1" fill="none" fill-rule="evenodd">
        <g id="Social-Icons" transform="translate(-49.000000, -3.000000)" fill="#FFFFFF">
            <path d="M70.5173636,4.83333333 C69.9217273,3.67344444 68.5366364,3 66.9317273,3 C64.0563636,3 61.6679091,5.48722222 61.5509091,8.5 C61.6679091,8.98888889 61.714,9.41177778 61.5509091,9.41666667 C57.372,9.58655556 53.4424545,7.378 50.7928182,3.91666667 C50.3508182,4.837 50.0872727,5.79155556 49.897,6.66666667 C50.0872727,8.73466667 51.0291818,10.4347778 52.5856364,11.25 C51.5881818,11.4052222 50.7644545,11.1522222 49.897,10.3333333 L49.897,11.25 C50.0423636,13.4976667 51.8824545,15.7441111 54.3796364,15.8333333 C53.8773636,16.3821111 53.4046364,16.4481111 52.5856364,16.75 C52.575,16.4481111 52.2393636,16.4138889 51.6898182,16.75 C52.5939091,18.5552222 54.5628182,20.1612222 57.0694545,20.4166667 C55.0733636,21.6951111 52.7711818,22.5836667 49.897,22.25 C49.8414545,22.5836667 49.416,22.558 49,22.25 C51.3600909,24.0796667 54.1657273,25 57.0694545,25 C66.9896364,25 72.3539091,16.5385556 72.3101818,9.41666667 C72.3539091,8.95711111 72.3491818,8.71633333 72.3101818,8.5 C73.3820909,7.69577778 74.2885455,6.718 75,5.75 C74.0450909,6.04577778 73.0169091,6.34522222 72.3101818,6.66666667 C73.0381818,5.79155556 73.8843636,4.70377778 74.103,3 C73.2509091,4.04255556 72.1116364,4.50455556 70.5173636,4.83333333 Z" id="Clip-2"></path>
        </g>
    </g>
</svg>