<?xml version="1.0" encoding="UTF-8"?>
<svg width="24px" height="28px" viewBox="0 0 24 28" version="1.1" xmlns="http://www.w3.org/2000/svg" xmlns:xlink="http://www.w3.org/1999/xlink">
    <!-- Generator: Sketch 51.3 (57544) - http://www.bohemiancoding.com/sketch -->
    <title>Clip 20</title>
    <desc>Created with Sketch.</desc>
    <defs></defs>
    <g id="Symbols" stroke="none" stroke-width="1" fill="none" fill-rule="evenodd">
        <g id="Social-Icons" transform="translate(-148.000000, 0.000000)" fill="#FFFFFF">
            <path d="M153.5272,10.9878362 C153.8068,10.9878362 155.854,10.9097092 159.928,10.9097092 C165.9616,10.9878362 167.854,10.9097092 169.5232,11.2234381 C172.072,11.6152941 171.856,16.0038366 172,19.3767276 C171.9232,23.3502202 171.9076,25.2020752 171.0568,26.4325762 C170.8732,26.7279941 170.3128,27.4372411 169.6744,27.6044818 C168.2212,27.9230937 163.9636,28 160.0396,28 C157.1644,28 152.8012,27.9243144 151.126,27.7668396 C147.856,27.4494485 148.144,23.0633474 148,19.4145703 C148,17.729956 148.144,15.5338536 148.4356,13.8113964 C149.0908,10.7534551 150.9088,11.1465318 153.5272,10.9878362 Z M150.2536,13.4976675 L150.2536,15.1432184 L151.852,15.1432184 L151.852,24.631992 L153.3844,24.631992 L153.3844,15.1432184 L155.0548,15.1432184 C155.1256,15.1432184 155.0548,13.4976675 155.0548,13.4976675 L150.2536,13.4976675 Z M160.582,13.5757946 L160.582,24.710119 L161.9656,24.710119 L161.9656,23.8470593 C162.2536,24.2364738 162.7648,24.7870253 163.6348,24.7870253 C164.5072,24.7870253 164.6572,23.2196015 164.6572,23.2196015 L164.6572,17.729956 C164.6572,16.7106422 164.002,16.2406592 163.3468,16.2406592 C162.6916,16.2406592 161.9656,17.1830667 161.9656,17.1830667 L161.9656,13.5757946 L160.582,13.5757946 Z M165.8176,22.4358896 C165.8176,22.4358896 165.7444,24.7870253 168.07,24.7870253 C168.07,24.7870253 169.6744,24.631992 169.8904,23.2196015 C170.0344,22.1966255 169.9636,21.8084318 169.9636,21.8084318 L168.5812,21.8084318 L168.5812,22.4358896 C168.5812,22.4358896 168.5812,23.3746349 167.998,23.3746349 C167.4148,23.3746349 167.1988,22.9022104 167.1988,22.4358896 L167.1988,20.7915595 L169.9636,20.7915595 L169.9636,18.5148886 C169.9636,18.5148886 170.0344,16.3187862 167.998,16.3187862 C166.2556,16.3187862 166.1116,17.259973 165.9616,17.729956 C165.9616,17.729956 165.8176,18.199939 165.8176,18.5148886 L165.8176,22.4358896 Z M157.9636,22.66905 C157.9636,22.8253041 157.4524,23.3746349 157.0912,23.3746349 C156.7252,23.3746349 156.7252,23.0633474 156.7252,23.0633474 L156.7252,16.3993548 L155.3428,16.3993548 L155.3428,23.2196015 C155.3428,24.2364738 155.6368,24.7870253 156.436,24.7870253 C157.2352,24.7870253 157.9636,23.7640494 157.9636,23.7640494 L157.9636,24.710119 L159.3448,24.710119 L159.3448,16.3993548 L157.9636,16.3993548 L157.9636,22.66905 Z M167.1988,18.5148886 C167.1988,18.3574138 167.3428,17.6518289 167.926,17.6518289 C168.5092,17.6518289 168.5812,18.5148886 168.5812,18.5148886 L168.5812,19.5329816 L167.1988,19.5329816 L167.1988,18.5148886 Z M162.0364,17.9679993 C162.0364,17.9679993 162.3268,17.6518289 162.6916,17.6518289 C163.0528,17.6518289 163.2748,17.9679993 163.2748,18.5148886 L163.2748,22.66905 C163.2748,22.66905 163.2748,23.3746349 162.6916,23.3746349 C162.6916,23.3746349 162.2536,23.3746349 162.0364,23.0633474 L162.0364,17.9679993 Z M155.5936,0 L154.4584,4.06138553 L153.322,0 L151.6564,0 L153.7012,6.20255482 L153.7012,10.4116493 L155.2156,10.4116493 L155.2156,6.20255482 L157.1836,0 L155.5936,0 Z M159.0388,2.62091817 C159.142,2.60260714 159.262,2.59284126 159.3808,2.59284126 C159.496,2.59284126 159.61,2.60138641 159.7072,2.61969743 C160.1968,2.70514889 161.1004,3.00544971 161.4256,4.06138553 C161.4256,4.06138553 161.5012,4.57775646 161.5012,4.79993024 L161.5012,8.49021232 C161.5012,8.49021232 161.4808,9.12133235 161.1208,9.67432533 C160.8592,10.0808301 160.4092,10.4385055 159.694,10.5337228 C159.574,10.5508131 159.2404,10.5532546 159.1372,10.5434887 C158.3812,10.4604787 157.9108,10.0930375 157.6384,9.67432533 C157.2796,9.12133235 157.2604,8.49021232 157.2604,8.49021232 L157.2604,4.79993024 C157.2604,4.57775646 157.3372,4.06138553 157.3372,4.06138553 C157.6576,3.01765706 158.5444,2.71125256 159.0388,2.62091817 Z M158.6248,8.49021232 C158.6248,9.25073026 159.1792,9.3044426 159.3388,9.3044426 C159.3652,9.3044426 159.3808,9.30322187 159.3808,9.30322187 C159.3808,9.30322187 160.0612,9.37768671 160.0612,8.49021232 L160.0612,4.79993024 C160.0612,4.79993024 160.138,3.83921175 159.3808,3.83921175 C159.3808,3.83921175 158.6248,3.76474692 158.6248,4.79993024 L158.6248,8.49021232 Z M165.4396,2.65754022 L165.4396,8.639142 C165.2116,9.15673366 164.6068,9.30322187 164.6068,9.30322187 C164.0764,9.30322187 164.152,8.93700135 164.152,8.93700135 L164.152,2.65754022 L162.712,2.65754022 L162.712,9.37768671 C162.712,10.1150107 163.0912,10.5593582 163.8496,10.5593582 C164.6068,10.5593582 165.4396,9.59986049 165.4396,9.59986049 L165.4396,10.4873349 L166.8772,10.4873349 L166.8772,2.65754022 L165.4396,2.65754022 Z" id="Clip-20"></path>
        </g>
    </g>
</svg>